
        <svg xmlns="http://www.w3.org/2000/svg" xmlns:xlink="http://www.w3.org/1999/xlink" version="1.1" width="3167.5977653631285" 
        height="951.9553072625698" viewBox="0 0 3167.5977653631285 951.9553072625698">
			
			<g transform="scale(8.379888268156424) translate(10, 10)">
				<defs id="SvgjsDefs1165"><linearGradient id="SvgjsLinearGradient1170"><stop id="SvgjsStop1171" stop-color="#8f5e25" offset="0"></stop><stop id="SvgjsStop1172" stop-color="#fbf4a1" offset="0.5"></stop><stop id="SvgjsStop1173" stop-color="#8f5e25" offset="1"></stop></linearGradient><linearGradient id="SvgjsLinearGradient1174"><stop id="SvgjsStop1175" stop-color="#8f5e25" offset="0"></stop><stop id="SvgjsStop1176" stop-color="#fbf4a1" offset="0.5"></stop><stop id="SvgjsStop1177" stop-color="#8f5e25" offset="1"></stop></linearGradient></defs><g id="SvgjsG1166" featureKey="symbolFeature-0" transform="matrix(1.1745367323621878,0,0,1.1745367323621878,-14.557208323623984,-12.228102216335873)" fill="url(#SvgjsLinearGradient1170)"><g xmlns="http://www.w3.org/2000/svg"><g><polygon points="54.644,56.782 35.043,56.782 29.789,76.381 49.394,76.381   "></polygon></g><g><polygon points="29.789,76.381 16.071,76.381 12.394,90.102 26.115,90.102   "></polygon></g><g><polygon points="72.04,43.063 58.319,43.063 54.644,56.782 68.363,56.782   "></polygon></g><g><polygon points="60.892,33.458 51.288,33.458 48.716,43.063 58.319,43.063   "></polygon></g><g><polygon points="78.988,17.134 69.384,17.134 66.81,26.739 76.416,26.739   "></polygon></g><g><polygon points="37.616,47.18 28.013,47.18 25.438,56.782 35.043,56.782   "></polygon></g><g><polygon points="87.511,10.411 80.79,10.411 78.988,17.134 85.71,17.134   "></polygon></g><g><polygon points="80.562,36.341 73.842,36.341 72.04,43.063 78.762,43.063   "></polygon></g><g><polygon points="53.089,26.735 46.37,26.735 44.565,33.458 51.288,33.458   "></polygon></g></g></g><g id="SvgjsG1167" featureKey="nameFeature-0" transform="matrix(1.2677291739271193,0,0,1.2677291739271193,101.76023830197953,22.316833987212526)" fill="url(#SvgjsLinearGradient1174)"><path d="M23.281 7.5 l11.797 0 l0 -6.0938 l-30.156 0 l0 6.0938 l18.359 0 z M16.719 13.594000000000001 l6.5625 0 l0 25 l-6.5625 0 l0 -25 z M71.703 38.5937 l7.0313 0 l-13.594 -37.266 l-7.1094 0 l7.8906 22.266 z M42.9531 38.5937 l6.875 0 l8.125 -19.844 l-3.3594 -8.9063 z M106.922 1.4059999999999988 c-2.8646 0 -5.5209 0.4686 -7.9688 1.4061 c-2.3959 0.9375 -4.4792 2.2396 -6.2501 3.9063 c-1.7188 1.5625 -3.0729 3.5416 -4.0625 5.9375 c-0.83336 2.0313 -1.3021 4.2448 -1.4063 6.6406 l0 2.3438 l6.875 0 l0 -2.3438 c0.10414 -1.7709 0.39063 -3.2031 0.85938 -4.2969 c0.625 -1.5104 1.4844 -2.8645 2.5781 -4.0624 c1.3021 -1.1979 2.6563 -2.0833 4.0625 -2.6562 c1.6146 -0.625 3.3855 -0.9375 5.3126 -0.9375 l9.8438 0 l0 -5.9375 l-9.8438 0 z M109.89099999999999 18.984 l0.000076294 1.4843 l0.078125 0 c-0.10414 1.6666 -0.41664 3.2031 -0.9375 4.6094 c-0.67711 1.6146 -1.5365 2.9427 -2.5781 3.9844 c-1.1459 1.1459 -2.5 2.0313 -4.0625 2.6563 c-1.6146 0.625 -3.3855 0.9375 -5.3126 0.9375 l-9.8438 0 l0 5.9375 l9.8438 0 c2.8646 0 5.5209 -0.46875 7.9688 -1.4063 c2.3959 -0.9375 4.4792 -2.2396 6.2501 -3.9063 c1.8229 -1.8229 3.177 -3.802 4.0624 -5.9374 c0.9375 -2.0834 1.4063 -4.375 1.4063 -6.875 l0 -1.4844 l-6.875 0 z M159.641 38.5156 l-12.734 -16.25 l-4.4531 4.8438 l9.2969 11.406 l7.8906 0 z M150.969 1.4059999999999988 l-17.734 18.359 l0 -18.359 l-6.4063 0 l0 37.109 l6.4063 0 l0 -8.75 l26.328 -28.359 l-8.5938 0 z M173.1406 1.328000000000003 l-7.2656 0 l14.531 22.578 l0 14.766 l7.1094 0 l0 -14.922 z M202.125 1.328000000000003 l-6.7969 0 l-8.5938 12.266 l3.8281 5.1563 z"></path></g>
			</g>
		</svg>
	